<mxfile host="app.diagrams.net" modified="2023-12-24T04:54:28.056Z" agent="Mozilla/5.0 (Windows NT 10.0; Win64; x64) AppleWebKit/537.36 (KHTML, like Gecko) Chrome/120.0.0.0 Safari/537.36" etag="0NesOwUPBzb1GpLZxmQz" version="22.1.11" type="github">
  <diagram name="第 1 页" id="jAvlmp3dLl9FF9cPbr76">
    <mxGraphModel dx="1674" dy="772" grid="1" gridSize="10" guides="1" tooltips="1" connect="1" arrows="1" fold="1" page="1" pageScale="1" pageWidth="827" pageHeight="1169" math="0" shadow="0">
      <root>
        <mxCell id="0" />
        <mxCell id="1" parent="0" />
        <mxCell id="BWF7j0bRXmXNBkzyuYKP-15" value="" style="rounded=0;whiteSpace=wrap;html=1;dashed=1;" vertex="1" parent="1">
          <mxGeometry x="40" y="320" width="200" height="280" as="geometry" />
        </mxCell>
        <mxCell id="BWF7j0bRXmXNBkzyuYKP-10" value="&lt;font style=&quot;font-size: 18px;&quot;&gt;输入变量&lt;/font&gt;" style="text;html=1;strokeColor=none;fillColor=none;align=center;verticalAlign=middle;whiteSpace=wrap;rounded=0;" vertex="1" parent="1">
          <mxGeometry x="102.5" y="330" width="75" height="30" as="geometry" />
        </mxCell>
        <mxCell id="BWF7j0bRXmXNBkzyuYKP-11" value="&lt;font style=&quot;font-size: 16px;&quot;&gt;用户定义参数&lt;/font&gt;" style="swimlane;fontStyle=0;childLayout=stackLayout;horizontal=1;startSize=30;horizontalStack=0;resizeParent=1;resizeParentMax=0;resizeLast=0;collapsible=1;marginBottom=0;whiteSpace=wrap;html=1;" vertex="1" parent="1">
          <mxGeometry x="70" y="370" width="140" height="120" as="geometry">
            <mxRectangle x="340" y="340" width="60" height="30" as="alternateBounds" />
          </mxGeometry>
        </mxCell>
        <mxCell id="BWF7j0bRXmXNBkzyuYKP-12" value="任务区域 ROI" style="text;strokeColor=none;fillColor=none;align=left;verticalAlign=middle;spacingLeft=4;spacingRight=4;overflow=hidden;points=[[0,0.5],[1,0.5]];portConstraint=eastwest;rotatable=0;whiteSpace=wrap;html=1;" vertex="1" parent="BWF7j0bRXmXNBkzyuYKP-11">
          <mxGeometry y="30" width="140" height="30" as="geometry" />
        </mxCell>
        <mxCell id="BWF7j0bRXmXNBkzyuYKP-13" value="感知范围" style="text;strokeColor=none;fillColor=none;align=left;verticalAlign=middle;spacingLeft=4;spacingRight=4;overflow=hidden;points=[[0,0.5],[1,0.5]];portConstraint=eastwest;rotatable=0;whiteSpace=wrap;html=1;" vertex="1" parent="BWF7j0bRXmXNBkzyuYKP-11">
          <mxGeometry y="60" width="140" height="30" as="geometry" />
        </mxCell>
        <mxCell id="BWF7j0bRXmXNBkzyuYKP-14" value="无人机参数" style="text;strokeColor=none;fillColor=none;align=left;verticalAlign=middle;spacingLeft=4;spacingRight=4;overflow=hidden;points=[[0,0.5],[1,0.5]];portConstraint=eastwest;rotatable=0;whiteSpace=wrap;html=1;" vertex="1" parent="BWF7j0bRXmXNBkzyuYKP-11">
          <mxGeometry y="90" width="140" height="30" as="geometry" />
        </mxCell>
        <mxCell id="BWF7j0bRXmXNBkzyuYKP-16" value="&lt;font style=&quot;font-size: 16px;&quot;&gt;地图API接入&lt;/font&gt;" style="rounded=0;whiteSpace=wrap;html=1;" vertex="1" parent="1">
          <mxGeometry x="80" y="520" width="120" height="60" as="geometry" />
        </mxCell>
        <mxCell id="BWF7j0bRXmXNBkzyuYKP-18" value="" style="rounded=0;whiteSpace=wrap;html=1;dashed=1;" vertex="1" parent="1">
          <mxGeometry x="280" y="320" width="800" height="280" as="geometry" />
        </mxCell>
        <mxCell id="BWF7j0bRXmXNBkzyuYKP-19" value="&lt;font style=&quot;font-size: 18px;&quot;&gt;地图转译&lt;/font&gt;" style="text;html=1;strokeColor=none;fillColor=none;align=center;verticalAlign=middle;whiteSpace=wrap;rounded=0;" vertex="1" parent="1">
          <mxGeometry x="400" y="330" width="75" height="30" as="geometry" />
        </mxCell>
        <mxCell id="BWF7j0bRXmXNBkzyuYKP-20" value="&lt;font style=&quot;font-size: 18px;&quot;&gt;任务分配&lt;/font&gt;" style="text;html=1;strokeColor=none;fillColor=none;align=center;verticalAlign=middle;whiteSpace=wrap;rounded=0;" vertex="1" parent="1">
          <mxGeometry x="655" y="330" width="75" height="30" as="geometry" />
        </mxCell>
        <mxCell id="BWF7j0bRXmXNBkzyuYKP-21" value="&lt;span style=&quot;font-size: 18px;&quot;&gt;路径规划&lt;/span&gt;" style="text;html=1;strokeColor=none;fillColor=none;align=center;verticalAlign=middle;whiteSpace=wrap;rounded=0;" vertex="1" parent="1">
          <mxGeometry x="890" y="330" width="75" height="30" as="geometry" />
        </mxCell>
        <mxCell id="BWF7j0bRXmXNBkzyuYKP-22" value="" style="rounded=0;whiteSpace=wrap;html=1;dashed=1;" vertex="1" parent="1">
          <mxGeometry x="1120" y="320" width="200" height="280" as="geometry" />
        </mxCell>
        <mxCell id="BWF7j0bRXmXNBkzyuYKP-23" value="&lt;span style=&quot;font-size: 18px;&quot;&gt;结果展示&lt;/span&gt;" style="text;html=1;strokeColor=none;fillColor=none;align=center;verticalAlign=middle;whiteSpace=wrap;rounded=0;" vertex="1" parent="1">
          <mxGeometry x="1182.5" y="330" width="75" height="30" as="geometry" />
        </mxCell>
        <mxCell id="BWF7j0bRXmXNBkzyuYKP-24" value="&lt;font style=&quot;font-size: 16px;&quot;&gt;ROI栅格化优化&lt;/font&gt;" style="shape=process;whiteSpace=wrap;html=1;backgroundOutline=1;" vertex="1" parent="1">
          <mxGeometry x="390" y="400" width="120" height="60" as="geometry" />
        </mxCell>
        <mxCell id="BWF7j0bRXmXNBkzyuYKP-25" value="" style="endArrow=classic;html=1;rounded=0;" edge="1" parent="1">
          <mxGeometry width="50" height="50" relative="1" as="geometry">
            <mxPoint x="150" y="414" as="sourcePoint" />
            <mxPoint x="390" y="414" as="targetPoint" />
          </mxGeometry>
        </mxCell>
        <mxCell id="BWF7j0bRXmXNBkzyuYKP-26" value="&lt;div&gt;WGS84-to-NED&lt;/div&gt;" style="rounded=0;whiteSpace=wrap;html=1;" vertex="1" parent="1">
          <mxGeometry x="290" y="393" width="80" height="40" as="geometry" />
        </mxCell>
        <mxCell id="BWF7j0bRXmXNBkzyuYKP-28" value="" style="endArrow=classic;html=1;rounded=0;" edge="1" parent="1">
          <mxGeometry width="50" height="50" relative="1" as="geometry">
            <mxPoint x="150" y="444" as="sourcePoint" />
            <mxPoint x="390" y="444" as="targetPoint" />
          </mxGeometry>
        </mxCell>
        <mxCell id="BWF7j0bRXmXNBkzyuYKP-29" value="&lt;div&gt;&lt;font style=&quot;font-size: 16px;&quot;&gt;ROI 的网格表示&lt;/font&gt;&lt;/div&gt;&lt;div&gt;&lt;font style=&quot;font-size: 16px;&quot;&gt;&lt;br&gt;&lt;/font&gt;&lt;/div&gt;&lt;div&gt;&lt;font size=&quot;3&quot;&gt;(可飞行区、&lt;/font&gt;&lt;/div&gt;&lt;div&gt;&lt;span style=&quot;font-size: medium; background-color: initial;&quot;&gt;禁飞区、&lt;/span&gt;&lt;br&gt;&lt;/div&gt;&lt;div&gt;&lt;font size=&quot;3&quot;&gt;无人机)&lt;/font&gt;&lt;/div&gt;" style="shape=process;whiteSpace=wrap;html=1;backgroundOutline=1;" vertex="1" parent="1">
          <mxGeometry x="560" y="383" width="120" height="197" as="geometry" />
        </mxCell>
        <mxCell id="BWF7j0bRXmXNBkzyuYKP-30" value="" style="endArrow=classic;html=1;rounded=0;" edge="1" parent="1">
          <mxGeometry width="50" height="50" relative="1" as="geometry">
            <mxPoint x="150" y="476" as="sourcePoint" />
            <mxPoint x="560" y="476" as="targetPoint" />
          </mxGeometry>
        </mxCell>
        <mxCell id="BWF7j0bRXmXNBkzyuYKP-31" value="" style="endArrow=classic;html=1;rounded=0;" edge="1" parent="1">
          <mxGeometry width="50" height="50" relative="1" as="geometry">
            <mxPoint x="360" y="444" as="sourcePoint" />
            <mxPoint x="560" y="464" as="targetPoint" />
            <Array as="points">
              <mxPoint x="360" y="464" />
            </Array>
          </mxGeometry>
        </mxCell>
        <mxCell id="BWF7j0bRXmXNBkzyuYKP-32" value="" style="endArrow=classic;html=1;rounded=0;" edge="1" parent="1">
          <mxGeometry width="50" height="50" relative="1" as="geometry">
            <mxPoint x="200" y="550" as="sourcePoint" />
            <mxPoint x="560" y="550" as="targetPoint" />
          </mxGeometry>
        </mxCell>
        <mxCell id="BWF7j0bRXmXNBkzyuYKP-33" value="" style="endArrow=classic;html=1;rounded=0;" edge="1" parent="1">
          <mxGeometry width="50" height="50" relative="1" as="geometry">
            <mxPoint x="510" y="429.5" as="sourcePoint" />
            <mxPoint x="560" y="430.5" as="targetPoint" />
          </mxGeometry>
        </mxCell>
        <mxCell id="BWF7j0bRXmXNBkzyuYKP-34" value="&lt;font style=&quot;font-size: 16px;&quot;&gt;加权K-Means区域划分&lt;/font&gt;" style="shape=process;whiteSpace=wrap;html=1;backgroundOutline=1;" vertex="1" parent="1">
          <mxGeometry x="730" y="420" width="70" height="140" as="geometry" />
        </mxCell>
        <mxCell id="BWF7j0bRXmXNBkzyuYKP-35" value="" style="endArrow=classic;html=1;rounded=0;" edge="1" parent="1">
          <mxGeometry width="50" height="50" relative="1" as="geometry">
            <mxPoint x="680" y="490" as="sourcePoint" />
            <mxPoint x="730" y="490.5" as="targetPoint" />
          </mxGeometry>
        </mxCell>
        <mxCell id="BWF7j0bRXmXNBkzyuYKP-36" value="&lt;font style=&quot;font-size: 16px;&quot;&gt;路径生成&lt;/font&gt;" style="swimlane;fontStyle=0;childLayout=stackLayout;horizontal=1;startSize=30;horizontalStack=0;resizeParent=1;resizeParentMax=0;resizeLast=0;collapsible=1;marginBottom=0;whiteSpace=wrap;html=1;" vertex="1" parent="1">
          <mxGeometry x="859.5" y="390" width="110.5" height="170" as="geometry">
            <mxRectangle x="860" y="420" width="60" height="30" as="alternateBounds" />
          </mxGeometry>
        </mxCell>
        <mxCell id="BWF7j0bRXmXNBkzyuYKP-37" value="覆盖路径 1" style="text;strokeColor=none;fillColor=none;align=left;verticalAlign=middle;spacingLeft=4;spacingRight=4;overflow=hidden;points=[[0,0.5],[1,0.5]];portConstraint=eastwest;rotatable=0;whiteSpace=wrap;html=1;" vertex="1" parent="BWF7j0bRXmXNBkzyuYKP-36">
          <mxGeometry y="30" width="110.5" height="30" as="geometry" />
        </mxCell>
        <mxCell id="BWF7j0bRXmXNBkzyuYKP-38" value="覆盖路径 2" style="text;strokeColor=none;fillColor=none;align=left;verticalAlign=middle;spacingLeft=4;spacingRight=4;overflow=hidden;points=[[0,0.5],[1,0.5]];portConstraint=eastwest;rotatable=0;whiteSpace=wrap;html=1;" vertex="1" parent="BWF7j0bRXmXNBkzyuYKP-36">
          <mxGeometry y="60" width="110.5" height="30" as="geometry" />
        </mxCell>
        <mxCell id="BWF7j0bRXmXNBkzyuYKP-39" value="......." style="text;strokeColor=none;fillColor=none;align=left;verticalAlign=middle;spacingLeft=4;spacingRight=4;overflow=hidden;points=[[0,0.5],[1,0.5]];portConstraint=eastwest;rotatable=0;whiteSpace=wrap;html=1;" vertex="1" parent="BWF7j0bRXmXNBkzyuYKP-36">
          <mxGeometry y="90" width="110.5" height="50" as="geometry" />
        </mxCell>
        <mxCell id="BWF7j0bRXmXNBkzyuYKP-46" value="覆盖路径 n" style="text;strokeColor=none;fillColor=none;align=left;verticalAlign=middle;spacingLeft=4;spacingRight=4;overflow=hidden;points=[[0,0.5],[1,0.5]];portConstraint=eastwest;rotatable=0;whiteSpace=wrap;html=1;" vertex="1" parent="BWF7j0bRXmXNBkzyuYKP-36">
          <mxGeometry y="140" width="110.5" height="30" as="geometry" />
        </mxCell>
        <mxCell id="BWF7j0bRXmXNBkzyuYKP-48" value="" style="endArrow=classic;html=1;rounded=0;" edge="1" parent="1">
          <mxGeometry width="50" height="50" relative="1" as="geometry">
            <mxPoint x="800" y="433" as="sourcePoint" />
            <mxPoint x="860" y="433" as="targetPoint" />
          </mxGeometry>
        </mxCell>
        <mxCell id="BWF7j0bRXmXNBkzyuYKP-49" value="" style="endArrow=classic;html=1;rounded=0;" edge="1" parent="1">
          <mxGeometry width="50" height="50" relative="1" as="geometry">
            <mxPoint x="800" y="465" as="sourcePoint" />
            <mxPoint x="860" y="465" as="targetPoint" />
          </mxGeometry>
        </mxCell>
        <mxCell id="BWF7j0bRXmXNBkzyuYKP-50" value="" style="endArrow=classic;html=1;rounded=0;" edge="1" parent="1">
          <mxGeometry width="50" height="50" relative="1" as="geometry">
            <mxPoint x="799" y="508" as="sourcePoint" />
            <mxPoint x="859" y="508" as="targetPoint" />
          </mxGeometry>
        </mxCell>
        <mxCell id="BWF7j0bRXmXNBkzyuYKP-51" value="" style="endArrow=classic;html=1;rounded=0;" edge="1" parent="1">
          <mxGeometry width="50" height="50" relative="1" as="geometry">
            <mxPoint x="800" y="545" as="sourcePoint" />
            <mxPoint x="860" y="545" as="targetPoint" />
          </mxGeometry>
        </mxCell>
        <mxCell id="BWF7j0bRXmXNBkzyuYKP-52" value="UAV 1" style="text;html=1;strokeColor=none;fillColor=none;align=center;verticalAlign=middle;whiteSpace=wrap;rounded=0;" vertex="1" parent="1">
          <mxGeometry x="799.5" y="403" width="60" height="30" as="geometry" />
        </mxCell>
        <mxCell id="BWF7j0bRXmXNBkzyuYKP-53" value="UAV 2" style="text;html=1;strokeColor=none;fillColor=none;align=center;verticalAlign=middle;whiteSpace=wrap;rounded=0;" vertex="1" parent="1">
          <mxGeometry x="800" y="435" width="60" height="30" as="geometry" />
        </mxCell>
        <mxCell id="BWF7j0bRXmXNBkzyuYKP-54" value="......" style="text;html=1;strokeColor=none;fillColor=none;align=center;verticalAlign=middle;whiteSpace=wrap;rounded=0;" vertex="1" parent="1">
          <mxGeometry x="799.5" y="478" width="60" height="30" as="geometry" />
        </mxCell>
        <mxCell id="BWF7j0bRXmXNBkzyuYKP-55" value="UAV n" style="text;html=1;strokeColor=none;fillColor=none;align=center;verticalAlign=middle;whiteSpace=wrap;rounded=0;" vertex="1" parent="1">
          <mxGeometry x="799.5" y="515" width="60" height="30" as="geometry" />
        </mxCell>
        <mxCell id="BWF7j0bRXmXNBkzyuYKP-57" value="" style="endArrow=classic;html=1;rounded=0;entryX=0;entryY=0.571;entryDx=0;entryDy=0;entryPerimeter=0;" edge="1" parent="1" target="BWF7j0bRXmXNBkzyuYKP-22">
          <mxGeometry width="50" height="50" relative="1" as="geometry">
            <mxPoint x="970" y="481" as="sourcePoint" />
            <mxPoint x="1020" y="481.5" as="targetPoint" />
          </mxGeometry>
        </mxCell>
        <mxCell id="BWF7j0bRXmXNBkzyuYKP-56" value="&lt;div&gt;NED-to-WGS84&lt;/div&gt;" style="rounded=0;whiteSpace=wrap;html=1;" vertex="1" parent="1">
          <mxGeometry x="990" y="461.5" width="80" height="40" as="geometry" />
        </mxCell>
        <mxCell id="BWF7j0bRXmXNBkzyuYKP-58" value="&lt;font style=&quot;font-size: 16px;&quot;&gt;三维地图API接入、接收无人机发现信息并显示&lt;/font&gt;" style="rounded=0;whiteSpace=wrap;html=1;" vertex="1" parent="1">
          <mxGeometry x="1160" y="435.5" width="120" height="92" as="geometry" />
        </mxCell>
      </root>
    </mxGraphModel>
  </diagram>
</mxfile>
